<svg data-v-423bf9ae="" xmlns="http://www.w3.org/2000/svg" viewBox="0 0 299 90" class="iconLeft"><!----><!----><!----><g data-v-423bf9ae="" id="16ef6832-dff9-4ea6-96c7-0dec014b8abe" fill="#FFFFFF" transform="matrix(5.494505456117445,0,0,5.494505456117445,107.36263053092729,-25.329669932622735)"><path d="M6.26 7.87L6.26 7.87Q7.20 7.87 7.77 8.37L7.77 8.37L7.77 8.37Q8.34 8.88 8.34 9.70L8.34 9.70L8.34 9.70Q8.34 10.37 7.97 11.05L7.97 11.05L7.97 11.05Q7.59 11.73 6.95 12.25L6.95 12.25L6.95 12.25Q6.31 12.77 5.54 12.98L5.54 12.98L5.33 12.61L5.33 12.61Q5.94 12.33 6.31 11.75L6.31 11.75L6.31 11.75Q6.68 11.17 6.68 10.50L6.68 10.50L6.68 10.50Q6.68 9.70 6.24 9.22L6.24 9.22L6.24 9.22Q5.81 8.74 5.11 8.74L5.11 8.74L5.11 8.74Q4.37 8.74 3.72 9.33L3.72 9.33L3.72 9.33Q3.07 9.93 2.68 10.93L2.68 10.93L2.68 10.93Q2.30 11.93 2.30 13.08L2.30 13.08L2.30 13.08Q2.30 14.25 2.66 15.16L2.66 15.16L2.66 15.16Q3.02 16.06 3.68 16.56L3.68 16.56L3.68 16.56Q4.33 17.07 5.17 17.07L5.17 17.07L5.17 17.07Q5.77 17.07 6.38 16.77L6.38 16.77L6.38 16.77Q6.99 16.46 7.56 15.89L7.56 15.89L7.94 16.24L7.94 16.24Q7.28 17.09 6.31 17.66L6.31 17.66L6.31 17.66Q5.33 18.23 4.27 18.23L4.27 18.23L4.27 18.23Q3.12 18.23 2.26 17.70L2.26 17.70L2.26 17.70Q1.40 17.16 0.94 16.22L0.94 16.22L0.94 16.22Q0.48 15.27 0.48 14.06L0.48 14.06L0.48 14.06Q0.48 12.35 1.25 10.93L1.25 10.93L1.25 10.93Q2.03 9.51 3.35 8.69L3.35 8.69L3.35 8.69Q4.68 7.87 6.26 7.87L6.26 7.87ZM12.74 11.09L12.74 11.09Q13.48 11.09 14.12 11.38L14.12 11.38L14.12 11.38Q14.76 11.68 15.06 12.29L15.06 12.29L13.71 12.85L13.71 12.85Q13.51 12.49 13.16 12.25L13.16 12.25L13.16 12.25Q12.81 12.01 12.42 12.01L12.42 12.01L12.42 12.01Q11.48 12.01 10.93 12.80L10.93 12.80L10.93 12.80Q10.39 13.58 10.39 14.76L10.39 14.76L10.39 14.76Q10.39 15.83 10.71 16.53L10.71 16.53L10.71 16.53Q11.03 17.22 11.73 17.22L11.73 17.22L11.73 17.22Q12.71 17.22 13.08 16.30L13.08 16.30L13.08 16.30Q13.44 15.39 13.44 14.31L13.44 14.31L13.44 13.69L15.08 13.10L15.08 16.74L15.08 16.74Q15.08 16.94 15.17 17.09L15.17 17.09L15.17 17.09Q15.26 17.23 15.44 17.23L15.44 17.23L15.44 17.23Q15.79 17.23 16.16 16.74L16.16 16.74L16.42 17.01L16.42 17.01Q16.21 17.50 15.76 17.84L15.76 17.84L15.76 17.84Q15.30 18.19 14.78 18.19L14.78 18.19L14.78 18.19Q14.11 18.19 13.80 17.73L13.80 17.73L13.80 17.73Q13.50 17.28 13.50 16.56L13.50 16.56L13.44 16.56L13.44 16.56Q13.10 17.32 12.54 17.79L12.54 17.79L12.54 17.79Q11.98 18.26 11.24 18.26L11.24 18.26L11.24 18.26Q10.12 18.26 9.51 17.44L9.51 17.44L9.51 17.44Q8.90 16.62 8.90 15.30L8.90 15.30L8.90 15.30Q8.90 14.18 9.39 13.22L9.39 13.22L9.39 13.22Q9.87 12.25 10.74 11.67L10.74 11.67L10.74 11.67Q11.62 11.09 12.74 11.09L12.74 11.09ZM20.85 12.01L19.43 12.01L19.43 16.80L19.43 16.80Q19.43 17.00 19.54 17.13L19.54 17.13L19.54 17.13Q19.66 17.26 19.84 17.26L19.84 17.26L19.84 17.26Q20.17 17.26 20.59 16.77L20.59 16.77L20.85 17.04L20.85 17.04Q20.59 17.54 20.22 17.79L20.22 17.79L20.22 17.79Q19.84 18.05 19.49 18.13L19.49 18.13L19.49 18.13Q19.14 18.21 19.14 18.19L19.14 18.19L19.14 18.19Q17.74 18.19 17.74 16.72L17.74 16.72L17.74 12.01L16.74 12.01L17.18 11.09L17.74 11.09L17.74 7.91L19.43 7.34L19.43 11.09L21.27 11.09L20.85 12.01ZM19.14 18.19L19.14 18.19ZM25.97 10.96L25.97 10.96Q26.78 10.96 27.33 11.38L27.33 11.38L27.33 11.38Q27.87 11.79 27.87 12.57L27.87 12.57L27.87 12.57Q27.87 13.20 27.19 13.98L27.19 13.98L27.19 13.98Q26.52 14.76 25.58 15.42L25.58 15.42L25.58 15.42Q24.65 16.09 24.00 16.38L24.00 16.38L24.00 16.38Q24.58 17.32 25.72 17.32L25.72 17.32L25.72 17.32Q26.35 17.32 26.98 16.96L26.98 16.96L26.98 16.96Q27.62 16.60 28.07 16.02L28.07 16.02L28.35 16.35L28.35 16.35Q27.62 17.26 26.82 17.76L26.82 17.76L26.82 17.76Q26.01 18.26 24.91 18.26L24.91 18.26L24.91 18.26Q24.01 18.26 23.30 17.85L23.30 17.85L23.30 17.85Q22.60 17.44 22.20 16.74L22.20 16.74L22.20 16.74Q21.80 16.03 21.80 15.15L21.80 15.15L21.80 15.15Q21.80 14.08 22.38 13.11L22.38 13.11L22.38 13.11Q22.96 12.14 23.93 11.55L23.93 11.55L23.93 11.55Q24.89 10.96 25.97 10.96L25.97 10.96ZM25.17 11.87L25.17 11.87Q24.64 11.87 24.22 12.26L24.22 12.26L24.22 12.26Q23.80 12.64 23.56 13.24L23.56 13.24L23.56 13.24Q23.32 13.85 23.32 14.49L23.32 14.49L23.32 14.49Q23.32 15.33 23.69 15.93L23.69 15.93L23.69 15.93Q24.21 15.64 24.79 15.11L24.79 15.11L24.79 15.11Q25.37 14.59 25.76 13.99L25.76 13.99L25.76 13.99Q26.15 13.38 26.15 12.89L26.15 12.89L26.15 12.89Q26.15 12.40 25.89 12.14L25.89 12.14L25.89 12.14Q25.63 11.87 25.17 11.87L25.17 11.87ZM32.48 12.98L32.48 12.98Q31.89 13.64 31.46 14.62L31.46 14.62L31.46 14.62Q31.04 15.61 31.04 16.42L31.04 16.42L31.04 16.42Q31.04 17.21 31.46 17.72L31.46 17.72L31.46 17.72Q31.88 18.23 32.65 18.23L32.65 18.23L32.65 18.23Q33.26 18.23 33.83 17.92L33.83 17.92L33.83 17.92Q34.40 17.61 34.80 17.09L34.80 17.09L34.59 16.84L34.59 16.84Q34.12 17.15 33.70 17.15L33.70 17.15L33.70 17.15Q33.07 17.15 32.74 16.72L32.74 16.72L32.74 16.72Q32.41 16.28 32.41 15.64L32.41 15.64L32.41 15.64Q32.41 14.59 32.98 13.55L32.98 13.55L32.98 13.55Q33.56 12.52 34.37 11.76L34.37 11.76L34.12 11.49L34.12 11.49Q33.18 12.11 32.33 12.11L32.33 12.11L32.33 12.11Q31.78 12.11 31.34 11.68L31.34 11.68L31.34 11.68Q30.90 11.26 30.74 10.68L30.74 10.68L29.40 12.19L29.40 12.19Q29.46 12.39 29.68 12.59L29.68 12.59L29.68 12.59Q29.90 12.78 29.95 12.82L29.95 12.82L29.01 14.76L29.58 15.01L30.49 13.06L30.49 13.06Q30.86 13.20 31.29 13.20L31.29 13.20L31.29 13.20Q31.96 13.20 32.44 12.92L32.44 12.92L32.48 12.98Z"></path></g><!----><g data-v-423bf9ae="" id="ef935686-12f0-4cbe-ba4c-f1c732c6e926" transform="matrix(2.8125,0,0,2.8125,0,0)" stroke="none" fill="#BF557B"><path d="M9.382 8.675h13.943v13.943L32 31.293V0H.707zM22.618 23.325H8.675V9.382L0 .707V32h31.293z"></path></g><!----></svg>